<svg height="50" viewBox="0 0 112 50" width="112" xmlns="http://www.w3.org/2000/svg" xmlns:xlink="http://www.w3.org/1999/xlink"><clipPath id="a"><path d="m0 0h112v112h-112z"/></clipPath><linearGradient id="b" gradientUnits="objectBoundingBox" x1=".845" x2=".166" y1=".653" y2="-.16"><stop offset="0" stop-color="#ff3800"/><stop offset=".511" stop-color="#f7931e"/><stop offset="1" stop-color="#d34200"/></linearGradient><linearGradient id="c" x1="-.105" x2=".893" xlink:href="#b" y1=".759" y2=".171"/><linearGradient id="d" gradientUnits="objectBoundingBox" x2="1" y1=".5" y2=".5"><stop offset="0" stop-color="#00aeaa"/><stop offset=".574" stop-color="#000baa"/><stop offset="1" stop-color="#00c4aa"/></linearGradient><linearGradient id="e" x1=".045" x2=".964" xlink:href="#b" y1=".631" y2=".2"/><clipPath id="f"><path d="m0 0h112v50h-112z"/></clipPath><g clip-path="url(#f)"><g clip-path="url(#a)" transform="translate(0 -31)"><path d="m2810.348 1881.715-.083.007a1.111 1.111 0 0 0 -.88.565l-7.108 12.713c-2.053 3.7-4.4 7.689-5.286 9.5-1.073-2.013-3.4-5.781-5.525-9.545l-7.2-12.52a1.326 1.326 0 0 0 -2.3 1.317l12.816 22.52a1.118 1.118 0 0 0 .981.565l2.124-.02a1.117 1.117 0 0 0 .962-.567l12.787-22.587a1.575 1.575 0 0 0 .213-.815 1 1 0 0 0 -.443-.842 1.558 1.558 0 0 0 -.924-.294c-.044-.002-.089 0-.134.003z" fill="url(#b)" transform="translate(-2703.902 -1829.022)"/><path d="m155.662 1858.33c9.08 0 15.37 4.931 15.37 12.659 0 7.691-6.148 13.1-15.418 13.1h-8.98a1.945 1.945 0 0 1 -1.945-1.945v-21.87a1.945 1.945 0 0 1 1.945-1.945zm-6.521 23.912h6.112c8.743 0 13.044-4.781 13.044-11.143 0-5.663-3.875-10.921-13.044-10.921h-6.112a1.875 1.875 0 0 0 -1.875 1.875v18.313a1.876 1.876 0 0 0 1.875 1.876z" fill="url(#c)" fill-rule="evenodd" transform="translate(-140.639 -1806.297)"/><path d="m1119.116 1141.544-7.935 13.744-1.384 2.4-.183.316-3.02 5.231a1.147 1.147 0 0 1 -1.987 0l-4.353-7.539a1.147 1.147 0 0 0 -1.987 0l-8.137 14.094a10.809 10.809 0 0 1 .561 3.489v.132l7.519-13.023a1.148 1.148 0 0 1 1.988 0l3.69 6.391a1.148 1.148 0 0 1 0 1.147l-3.772 6.534a1.147 1.147 0 1 0 1.987 1.147l7.455-12.912 1.567-2.714 1.384-2.4 6.551-11.346a1.147 1.147 0 0 1 1.987 0l9.5 16.457 1.224 2.119a1.147 1.147 0 0 0 1.981.011l.06-.1a1.148 1.148 0 0 0 .006-1.158l-3.218-5.564-2.548-4.414a1.147 1.147 0 0 1 .006-1.158l.55-.93a1.147 1.147 0 0 1 1.975 0l6.047 10.409.281.506a1.326 1.326 0 0 1 2.285-1.19l-8.674-14.417a1.255 1.255 0 0 0 -1.975 0l-1.569 2.1c-.605.692-1.042.623-1.605.012a.542.542 0 0 1 -.068-.093l-4.206-7.286a1.147 1.147 0 0 0 -1.987 0z" fill="url(#d)" transform="translate(-1059.606 -1109.023)"/><path d="m1797.17 1857.284c-.39 0-4.125 0-4.84 0a.2.2 0 0 0 -.174.1l-.357.67a.184.184 0 0 0 -.029.04l-.538 1a.194.194 0 0 0 .173.286h12.795a.5.5 0 0 1 .386.815c-.668.791-1.589 1.882-1.646 1.954-.443.565-.787.972-1.045 1.291l-.538.642v.007a10.653 10.653 0 0 1 6.22 3.646 7.674 7.674 0 0 1 1.444 6.063 7.154 7.154 0 0 1 -1.733 3.364 9.135 9.135 0 0 1 -4.455 2.687 8.1 8.1 0 0 1 -4.049-.067l-2.205.938a4.782 4.782 0 0 0 .444.18 9.8 9.8 0 0 0 6.454.476 11.36 11.36 0 0 0 3.628-1.743h.011a1.088 1.088 0 0 0 .155-.122 9.567 9.567 0 0 0 3.619-5.7 9.128 9.128 0 0 0 -1.675-7.15 10.239 10.239 0 0 0 -4.3-3.378.52.52 0 0 1 -.206-.8c1.119-1.412 2.222-2.817 3.249-4.289a.566.566 0 0 0 -.463-.891c-2.738 0-5.735-.026-8.563-.026-.595.003-1.184.004-1.762.007z" fill="url(#e)" transform="translate(-1741.055 -1805.276)"/></g></g></svg>